<svg width="466" height="60" viewBox="0 0 466 60" fill="none" xmlns="http://www.w3.org/2000/svg">
<path d="M22.4798 5.88998H32.7663L55.9111 53.7313H45.7163L41.8895 45.6813H13.9382L10.2339 53.7313H0.00854492L22.4798 5.88998ZM38.0627 37.6924L27.7149 15.9602L17.6426 37.6924H38.0627Z" fill="#66FCF1" fill-opacity="0.9"/>
<path d="M115.076 5.88998H124.781V32.244C124.781 34.4071 125.077 36.3354 125.669 38.0291C126.261 39.7024 127.138 41.1206 128.302 42.2837C129.486 43.4468 130.945 44.3345 132.68 44.9467C134.415 45.5384 136.435 45.8343 138.741 45.8343C141.027 45.8343 143.038 45.5384 144.773 44.9467C146.528 44.3345 147.987 43.4468 149.15 42.2837C150.334 41.1206 151.222 39.7024 151.814 38.0291C152.406 36.3354 152.702 34.4071 152.702 32.244V5.88998H162.407V33.4072C162.407 36.5497 161.876 39.4065 160.815 41.9776C159.753 44.5487 158.212 46.7526 156.192 48.5891C154.171 50.4256 151.691 51.8438 148.752 52.8437C145.834 53.8436 142.497 54.3435 138.741 54.3435C134.986 54.3435 131.639 53.8436 128.7 52.8437C125.781 51.8438 123.312 50.4256 121.291 48.5891C119.27 46.7526 117.729 44.5487 116.668 41.9776C115.607 39.4065 115.076 36.5497 115.076 33.4072V5.88998Z" fill="#66FCF1" fill-opacity="0.9"/>
<path d="M190.572 5.88998H200.859L224.003 53.7313H213.809L209.982 45.6813H182.031L178.326 53.7313H168.101L190.572 5.88998ZM206.155 37.6924L195.807 15.9602L185.735 37.6924H206.155Z" fill="#66FCF1" fill-opacity="0.9"/>
<path d="M231.443 5.88998H256.669C260.343 5.88998 263.527 6.2879 266.221 7.08372C268.915 7.87955 271.15 9.03247 272.926 10.5425C274.701 12.0321 276.018 13.8584 276.875 16.0215C277.753 18.1845 278.192 20.623 278.192 23.3369C278.192 25.8877 277.763 28.2445 276.906 30.4075C276.048 32.5705 274.732 34.4479 272.956 36.0395C271.201 37.6108 268.976 38.8453 266.282 39.7432C263.588 40.6206 260.404 41.0593 256.731 41.0593L241.148 41.0287V53.7313H231.443V5.88998ZM256.914 32.642C258.751 32.642 260.353 32.4277 261.721 31.9992C263.109 31.5503 264.262 30.9279 265.18 30.1321C266.119 29.3158 266.813 28.3363 267.262 27.1936C267.731 26.0305 267.966 24.7449 267.966 23.3369C267.966 20.5005 267.038 18.2967 265.18 16.7255C263.343 15.1338 260.588 14.338 256.914 14.338H241.148V32.642H256.914Z" fill="#989898"/>
<path d="M285.998 29.6729C285.998 26.0611 286.662 22.7554 287.988 19.7557C289.315 16.7561 291.172 14.1849 293.56 12.0423C295.968 9.87931 298.846 8.20604 302.193 7.0225C305.561 5.83897 309.286 5.2472 313.368 5.2472C317.429 5.2472 321.144 5.83897 324.512 7.0225C327.879 8.20604 330.757 9.87931 333.145 12.0423C335.553 14.1849 337.421 16.7561 338.747 19.7557C340.074 22.7554 340.737 26.0611 340.737 29.6729C340.737 33.3052 340.074 36.6415 338.747 39.682C337.421 42.702 335.553 45.3038 333.145 47.4872C330.757 49.6706 327.879 51.3745 324.512 52.5988C321.144 53.8028 317.429 54.4047 313.368 54.4047C309.286 54.4047 305.561 53.8028 302.193 52.5988C298.846 51.3745 295.968 49.6706 293.56 47.4872C291.172 45.3038 289.315 42.702 287.988 39.682C286.662 36.6415 285.998 33.3052 285.998 29.6729ZM295.703 29.6729C295.703 32.142 296.142 34.3663 297.02 36.3456C297.918 38.325 299.152 40.0187 300.724 41.4267C302.316 42.8143 304.183 43.8856 306.326 44.6406C308.49 45.3956 310.837 45.7731 313.368 45.7731C315.899 45.7731 318.236 45.3956 320.379 44.6406C322.542 43.8856 324.41 42.8143 325.981 41.4267C327.553 40.0187 328.787 38.325 329.686 36.3456C330.584 34.3663 331.033 32.142 331.033 29.6729C331.033 27.2038 330.584 24.9898 329.686 23.0308C328.787 21.0719 327.553 19.419 325.981 18.0722C324.41 16.705 322.542 15.6644 320.379 14.9502C318.236 14.2359 315.899 13.8788 313.368 13.8788C310.837 13.8788 308.49 14.2359 306.326 14.9502C304.183 15.6644 302.316 16.705 300.724 18.0722C299.152 19.419 297.918 21.0719 297.02 23.0308C296.142 24.9898 295.703 27.2038 295.703 29.6729Z" fill="#989898"/>
<path d="M351.453 5.88998H361.157L390.976 21.5004V5.88998H400.681V53.7313H390.976V31.7849L361.157 16.2663V53.7313H351.453V5.88998Z" fill="#989898"/>
<path d="M410.937 29.3668C410.937 25.9999 411.57 22.8574 412.835 19.9394C414.101 17.0009 415.948 14.4502 418.376 12.2872C420.805 10.1242 423.785 8.4203 427.316 7.17555C430.867 5.9308 434.929 5.30842 439.501 5.30842C441.154 5.30842 442.807 5.40024 444.46 5.5839C446.134 5.74714 447.777 6.01242 449.389 6.37972C451.022 6.74703 452.604 7.21636 454.134 7.78772C455.686 8.33868 457.155 9.00187 458.543 9.77728L454.073 17.1234C453.236 16.6336 452.287 16.1949 451.226 15.8072C450.165 15.3991 449.022 15.0624 447.797 14.7971C446.593 14.5114 445.338 14.2972 444.032 14.1543C442.746 14.0115 441.45 13.9401 440.143 13.9401C437.123 13.9401 434.429 14.3278 432.061 15.1032C429.694 15.8582 427.693 16.9295 426.061 18.3171C424.428 19.6843 423.183 21.327 422.326 23.2451C421.468 25.1632 421.04 27.265 421.04 29.5505C421.04 31.9176 421.489 34.0908 422.387 36.0701C423.285 38.0495 424.561 39.7534 426.214 41.1818C427.867 42.6102 429.867 43.7325 432.214 44.5487C434.561 45.3446 437.184 45.7425 440.082 45.7425C442.389 45.7425 444.501 45.4874 446.419 44.9773C448.338 44.4467 450.012 43.7019 451.44 42.7428C452.869 41.7838 454.032 40.6308 454.93 39.284C455.828 37.9169 456.42 36.3864 456.706 34.6927H439.99V26.7039H465.431V26.7345L465.462 26.7039C465.972 29.1526 466.125 31.5401 465.921 33.8663C465.737 36.1722 465.207 38.3556 464.329 40.4166C463.472 42.4571 462.288 44.3345 460.778 46.0486C459.267 47.7627 457.461 49.2421 455.359 50.4868C453.257 51.7112 450.869 52.6702 448.195 53.364C445.521 54.0374 442.593 54.3741 439.409 54.3741C434.959 54.3741 430.969 53.7211 427.438 52.4152C423.928 51.1092 420.948 49.3237 418.499 47.0587C416.05 44.7936 414.172 42.1409 412.866 39.1004C411.58 36.0599 410.937 32.8154 410.937 29.3668Z" fill="#989898"/>
<path d="M101.452 56.9516C101.248 57.1374 101.028 57.3374 100.792 57.5535L100.787 57.558C100.552 57.7742 100.333 57.976 100.13 58.1634C98.7524 59.4354 98.0911 60.0458 97.6417 59.9973C97.2279 59.9526 96.9931 59.35 96.542 58.1926C95.881 56.4968 94.7559 53.61 91.924 49.5422C90.6166 46.9869 86.7201 46.8563 82.0831 47.6256C82.0016 47.6498 81.9203 47.6732 81.839 47.6959L98.6665 32.2681C98.6206 32.3679 98.5739 32.4676 98.5266 32.5672C96.5909 37.8188 95.5666 42.4549 97.162 44.7399C99.4881 49.2714 101.396 51.4408 102.516 52.7151C103.281 53.5849 103.679 54.0378 103.594 54.5403C103.501 55.086 102.836 55.691 101.452 56.9516Z" fill="#989898"/>
<path fill-rule="evenodd" clip-rule="evenodd" d="M97.5915 8.15581C101.863 14.7772 102.145 22.7477 98.6149 30.2357L78.9019 47.5877C71.7666 49.4881 65.2849 46.9748 61.0131 40.3534C54.5492 30.3343 57.4976 15.0045 67.5984 6.11343C77.6993 -2.77768 91.1276 -1.86327 97.5915 8.15581ZM90.7671 12.3347C93.426 16.8406 93.5237 22.2645 91.1924 27.3602L78.4277 39.1683C73.8526 40.4616 69.7404 38.7512 67.0815 34.2453C63.0582 27.4273 65.0988 16.9953 71.6394 10.9448C78.18 4.89437 86.7437 5.51663 90.7671 12.3347Z" fill="#5FE6DC"/>
</svg>
