<?xml version="1.0" standalone="no"?>
<svg xmlns:xlink="http://www.w3.org/1999/xlink" id="wave" style="transform:rotate(0deg); transition: 0.3s" viewBox="0 0 1440 490" version="1.1" xmlns="http://www.w3.org/2000/svg"><defs><linearGradient id="sw-gradient-0" x1="0" x2="0" y1="1" y2="0"><stop stop-color="rgba(80, 170, 164, 1)" offset="0%"/><stop stop-color="rgba(80, 170, 164, 1)" offset="100%"/></linearGradient></defs><path style="transform:translate(0, 0px); opacity:1" fill="url(#sw-gradient-0)" d="M0,147L60,196C120,245,240,343,360,351.2C480,359,600,278,720,236.8C840,196,960,196,1080,228.7C1200,261,1320,327,1440,326.7C1560,327,1680,261,1800,261.3C1920,261,2040,327,2160,302.2C2280,278,2400,163,2520,138.8C2640,114,2760,180,2880,220.5C3000,261,3120,278,3240,236.8C3360,196,3480,98,3600,73.5C3720,49,3840,98,3960,155.2C4080,212,4200,278,4320,310.3C4440,343,4560,343,4680,302.2C4800,261,4920,180,5040,147C5160,114,5280,131,5400,155.2C5520,180,5640,212,5760,236.8C5880,261,6000,278,6120,310.3C6240,343,6360,392,6480,383.8C6600,376,6720,310,6840,269.5C6960,229,7080,212,7200,187.8C7320,163,7440,131,7560,171.5C7680,212,7800,327,7920,334.8C8040,343,8160,245,8280,228.7C8400,212,8520,278,8580,310.3L8640,343L8640,490L8580,490C8520,490,8400,490,8280,490C8160,490,8040,490,7920,490C7800,490,7680,490,7560,490C7440,490,7320,490,7200,490C7080,490,6960,490,6840,490C6720,490,6600,490,6480,490C6360,490,6240,490,6120,490C6000,490,5880,490,5760,490C5640,490,5520,490,5400,490C5280,490,5160,490,5040,490C4920,490,4800,490,4680,490C4560,490,4440,490,4320,490C4200,490,4080,490,3960,490C3840,490,3720,490,3600,490C3480,490,3360,490,3240,490C3120,490,3000,490,2880,490C2760,490,2640,490,2520,490C2400,490,2280,490,2160,490C2040,490,1920,490,1800,490C1680,490,1560,490,1440,490C1320,490,1200,490,1080,490C960,490,840,490,720,490C600,490,480,490,360,490C240,490,120,490,60,490L0,490Z"/><defs><linearGradient id="sw-gradient-1" x1="0" x2="0" y1="1" y2="0"><stop stop-color="rgba(80, 170, 164, 1)" offset="0%"/><stop stop-color="rgba(80, 170, 164, 1)" offset="100%"/></linearGradient></defs><path style="transform:translate(0, 50px); opacity:0.9" fill="url(#sw-gradient-1)" d="M0,196L60,187.8C120,180,240,163,360,196C480,229,600,310,720,351.2C840,392,960,392,1080,326.7C1200,261,1320,131,1440,98C1560,65,1680,131,1800,147C1920,163,2040,131,2160,171.5C2280,212,2400,327,2520,318.5C2640,310,2760,180,2880,106.2C3000,33,3120,16,3240,81.7C3360,147,3480,294,3600,334.8C3720,376,3840,310,3960,245C4080,180,4200,114,4320,130.7C4440,147,4560,245,4680,253.2C4800,261,4920,180,5040,171.5C5160,163,5280,229,5400,220.5C5520,212,5640,131,5760,147C5880,163,6000,278,6120,277.7C6240,278,6360,163,6480,130.7C6600,98,6720,147,6840,179.7C6960,212,7080,229,7200,269.5C7320,310,7440,376,7560,359.3C7680,343,7800,245,7920,228.7C8040,212,8160,278,8280,326.7C8400,376,8520,408,8580,424.7L8640,441L8640,490L8580,490C8520,490,8400,490,8280,490C8160,490,8040,490,7920,490C7800,490,7680,490,7560,490C7440,490,7320,490,7200,490C7080,490,6960,490,6840,490C6720,490,6600,490,6480,490C6360,490,6240,490,6120,490C6000,490,5880,490,5760,490C5640,490,5520,490,5400,490C5280,490,5160,490,5040,490C4920,490,4800,490,4680,490C4560,490,4440,490,4320,490C4200,490,4080,490,3960,490C3840,490,3720,490,3600,490C3480,490,3360,490,3240,490C3120,490,3000,490,2880,490C2760,490,2640,490,2520,490C2400,490,2280,490,2160,490C2040,490,1920,490,1800,490C1680,490,1560,490,1440,490C1320,490,1200,490,1080,490C960,490,840,490,720,490C600,490,480,490,360,490C240,490,120,490,60,490L0,490Z"/></svg>