<svg width="22" height="22" viewBox="0 0 22 22" fill="none" xmlns="http://www.w3.org/2000/svg">
<path d="M7.9233 8.69231C10.0475 8.69231 11.7695 6.97032 11.7695 4.84615C11.7695 2.72198 10.0475 1 7.9233 1C5.79913 1 4.07715 2.72198 4.07715 4.84615C4.07715 6.97032 5.79913 8.69231 7.9233 8.69231Z" stroke="white" stroke-linecap="round" stroke-linejoin="round"/>
<path d="M7.92308 19.4617H1V18.6277C1.01225 17.4551 1.3215 16.3046 1.89888 15.284C2.47626 14.2633 3.30292 13.4056 4.30165 12.791C5.30038 12.1763 6.4386 11.8249 7.60997 11.7695C7.7144 11.7645 7.8188 11.7619 7.92308 11.7617C8.02735 11.7619 8.13177 11.7645 8.2362 11.7695C9.40757 11.8249 10.5458 12.1763 11.5445 12.791C12.1188 13.1444 12.6362 13.5782 13.0821 14.0771" stroke="white" stroke-linecap="round" stroke-linejoin="round"/>
<path d="M21.0003 13.3076L14.8465 20.9999L11.7695 18.6922" stroke="white" stroke-linecap="round" stroke-linejoin="round"/>
</svg>
