<svg width="100" height="164" viewBox="0 0 100 164" fill="none" xmlns="http://www.w3.org/2000/svg">
<path d="M8.73438 147.789H19.1328V149.961H11.2109V152.398H18.2266V154.438H11.2109V157.836H19.2969V160H8.73438V147.789ZM21.7578 150.781H24.0703V151.562C24.6849 151.214 25.2708 150.969 25.8281 150.828C26.3906 150.688 26.9401 150.617 27.4766 150.617C28.1797 150.617 28.8307 150.721 29.4297 150.93C30.0286 151.133 30.5469 151.438 30.9844 151.844C31.4219 152.25 31.763 152.758 32.0078 153.367C32.2578 153.971 32.3828 154.672 32.3828 155.469V160H30.0781V155.844C30.0781 155.339 30.0052 154.888 29.8594 154.492C29.7188 154.091 29.513 153.755 29.2422 153.484C28.9766 153.208 28.651 153 28.2656 152.859C27.8854 152.714 27.4583 152.641 26.9844 152.641C26.7344 152.641 26.4766 152.667 26.2109 152.719C25.9505 152.771 25.6927 152.846 25.4375 152.945C25.1875 153.039 24.9453 153.159 24.7109 153.305C24.4766 153.445 24.263 153.607 24.0703 153.789V160H21.7578V150.781ZM34.7891 157.094C34.7891 156.651 34.8854 156.247 35.0781 155.883C35.2708 155.518 35.5599 155.206 35.9453 154.945C36.3307 154.68 36.8099 154.477 37.3828 154.336C37.9609 154.19 38.6328 154.117 39.3984 154.117C39.9661 154.117 40.5625 154.159 41.1875 154.242C41.8177 154.326 42.4661 154.453 43.1328 154.625C43.1068 154.333 43.0182 154.065 42.8672 153.82C42.7161 153.57 42.5052 153.357 42.2344 153.18C41.9688 152.997 41.6458 152.857 41.2656 152.758C40.8906 152.659 40.4635 152.609 39.9844 152.609C39.724 152.609 39.4375 152.625 39.125 152.656C38.8125 152.688 38.4896 152.734 38.1562 152.797C37.8229 152.859 37.4922 152.938 37.1641 153.031C36.8411 153.125 36.5391 153.237 36.2578 153.367L35.5547 151.469C35.9036 151.344 36.276 151.229 36.6719 151.125C37.0729 151.021 37.4818 150.932 37.8984 150.859C38.3151 150.781 38.7318 150.721 39.1484 150.68C39.5651 150.638 39.9688 150.617 40.3594 150.617C42.0833 150.617 43.3646 151.057 44.2031 151.938C45.0417 152.818 45.4609 154.167 45.4609 155.984V160H43.1484V159.133C42.9089 159.273 42.6458 159.406 42.3594 159.531C42.0781 159.656 41.7708 159.766 41.4375 159.859C41.1042 159.953 40.7448 160.026 40.3594 160.078C39.9792 160.135 39.5755 160.164 39.1484 160.164C38.4297 160.164 37.7969 160.086 37.25 159.93C36.7083 159.773 36.2552 159.557 35.8906 159.281C35.526 159.005 35.25 158.682 35.0625 158.312C34.8802 157.938 34.7891 157.531 34.7891 157.094ZM37.2266 157.016C37.2266 157.167 37.2656 157.312 37.3438 157.453C37.4219 157.589 37.5469 157.711 37.7188 157.82C37.8906 157.924 38.1094 158.01 38.375 158.078C38.6458 158.141 38.9714 158.172 39.3516 158.172C39.7578 158.172 40.151 158.135 40.5312 158.062C40.9115 157.99 41.2656 157.893 41.5938 157.773C41.9219 157.654 42.2188 157.516 42.4844 157.359C42.75 157.203 42.9714 157.042 43.1484 156.875V156.469C42.7943 156.37 42.4427 156.286 42.0938 156.219C41.75 156.151 41.4193 156.099 41.1016 156.062C40.7891 156.021 40.4922 155.992 40.2109 155.977C39.9349 155.961 39.6927 155.953 39.4844 155.953C39.0521 155.953 38.6927 155.982 38.4062 156.039C38.1198 156.096 37.888 156.174 37.7109 156.273C37.5339 156.367 37.4089 156.479 37.3359 156.609C37.263 156.74 37.2266 156.875 37.2266 157.016ZM48.4609 147.039H50.7734V151.648C50.9766 151.508 51.2161 151.375 51.4922 151.25C51.7682 151.125 52.0651 151.016 52.3828 150.922C52.7005 150.828 53.0286 150.755 53.3672 150.703C53.7057 150.646 54.0443 150.617 54.3828 150.617C55.1641 150.617 55.8802 150.732 56.5312 150.961C57.1875 151.19 57.75 151.513 58.2188 151.93C58.6875 152.346 59.0521 152.846 59.3125 153.43C59.5781 154.008 59.7109 154.648 59.7109 155.352C59.7109 156.086 59.5729 156.75 59.2969 157.344C59.0208 157.932 58.638 158.438 58.1484 158.859C57.6641 159.276 57.0859 159.599 56.4141 159.828C55.7474 160.052 55.0234 160.164 54.2422 160.164C53.9089 160.164 53.5781 160.143 53.25 160.102C52.9271 160.06 52.6146 160.003 52.3125 159.93C52.0156 159.857 51.7344 159.771 51.4688 159.672C51.2083 159.568 50.9766 159.456 50.7734 159.336V160H48.4609V147.039ZM50.7734 157.102C51.0078 157.289 51.2552 157.448 51.5156 157.578C51.776 157.708 52.0417 157.815 52.3125 157.898C52.5833 157.982 52.8568 158.044 53.1328 158.086C53.4089 158.122 53.6771 158.141 53.9375 158.141C54.4688 158.141 54.9401 158.07 55.3516 157.93C55.7682 157.784 56.1172 157.586 56.3984 157.336C56.6849 157.086 56.9036 156.792 57.0547 156.453C57.2057 156.115 57.2812 155.747 57.2812 155.352C57.2812 154.982 57.2057 154.633 57.0547 154.305C56.9089 153.977 56.6953 153.69 56.4141 153.445C56.138 153.195 55.8021 153 55.4062 152.859C55.0156 152.714 54.5755 152.641 54.0859 152.641C53.7734 152.641 53.4609 152.672 53.1484 152.734C52.8359 152.792 52.5339 152.875 52.2422 152.984C51.9557 153.094 51.6849 153.227 51.4297 153.383C51.1797 153.539 50.9609 153.714 50.7734 153.906V157.102ZM61.9141 147.039H64.2266V160H61.9141V147.039ZM66.7578 155.359C66.7578 154.734 66.8854 154.138 67.1406 153.57C67.3958 152.997 67.763 152.492 68.2422 152.055C68.7214 151.617 69.3073 151.268 70 151.008C70.6979 150.747 71.4896 150.617 72.375 150.617C73.2552 150.617 74.0469 150.75 74.75 151.016C75.4583 151.276 76.0573 151.635 76.5469 152.094C77.0417 152.552 77.4193 153.091 77.6797 153.711C77.9453 154.331 78.0781 154.995 78.0781 155.703C78.0781 155.792 78.0755 155.888 78.0703 155.992C78.0703 156.091 78.0651 156.182 78.0547 156.266H69.3359C69.4349 156.542 69.5938 156.794 69.8125 157.023C70.0365 157.253 70.3151 157.451 70.6484 157.617C70.9818 157.784 71.3672 157.914 71.8047 158.008C72.2422 158.096 72.7266 158.141 73.2578 158.141C73.7891 158.141 74.3177 158.086 74.8438 157.977C75.3698 157.862 75.8724 157.719 76.3516 157.547L77.1328 159.312C76.8307 159.453 76.5234 159.578 76.2109 159.688C75.9036 159.792 75.5807 159.88 75.2422 159.953C74.9089 160.021 74.5573 160.073 74.1875 160.109C73.8229 160.146 73.4375 160.164 73.0312 160.164C71.9948 160.164 71.0859 160.039 70.3047 159.789C69.5234 159.539 68.8698 159.198 68.3438 158.766C67.8177 158.333 67.4219 157.826 67.1562 157.242C66.8906 156.659 66.7578 156.031 66.7578 155.359ZM75.625 154.461C75.5417 154.206 75.4115 153.969 75.2344 153.75C75.0625 153.526 74.8464 153.333 74.5859 153.172C74.3255 153.005 74.0234 152.875 73.6797 152.781C73.3359 152.688 72.9583 152.641 72.5469 152.641C72.1094 152.641 71.7109 152.69 71.3516 152.789C70.9922 152.888 70.6771 153.021 70.4062 153.188C70.1354 153.354 69.9089 153.547 69.7266 153.766C69.5495 153.984 69.4193 154.216 69.3359 154.461H75.625ZM79.8594 155.43C79.8594 154.695 79.9974 154.034 80.2734 153.445C80.5495 152.852 80.9297 152.346 81.4141 151.93C81.9036 151.508 82.4818 151.185 83.1484 150.961C83.8203 150.732 84.5469 150.617 85.3281 150.617C85.6615 150.617 85.9896 150.638 86.3125 150.68C86.6406 150.721 86.9531 150.779 87.25 150.852C87.5521 150.924 87.8333 151.013 88.0938 151.117C88.3594 151.216 88.5938 151.326 88.7969 151.445V147.039H91.1094V160H88.7969V159.133C88.5938 159.273 88.3542 159.406 88.0781 159.531C87.8021 159.656 87.5052 159.766 87.1875 159.859C86.8698 159.953 86.5391 160.026 86.1953 160.078C85.8568 160.135 85.5208 160.164 85.1875 160.164C84.4062 160.164 83.6875 160.049 83.0312 159.82C82.3802 159.591 81.8203 159.268 81.3516 158.852C80.8828 158.435 80.5156 157.938 80.25 157.359C79.9896 156.776 79.8594 156.133 79.8594 155.43ZM82.2891 155.43C82.2891 155.799 82.362 156.148 82.5078 156.477C82.6589 156.805 82.8724 157.094 83.1484 157.344C83.4297 157.589 83.7656 157.784 84.1562 157.93C84.5521 158.07 84.9948 158.141 85.4844 158.141C85.7969 158.141 86.1094 158.112 86.4219 158.055C86.7344 157.992 87.0339 157.906 87.3203 157.797C87.612 157.688 87.8828 157.555 88.1328 157.398C88.388 157.242 88.6094 157.068 88.7969 156.875V153.68C88.5625 153.492 88.3151 153.333 88.0547 153.203C87.7943 153.073 87.5286 152.966 87.2578 152.883C86.987 152.799 86.7135 152.74 86.4375 152.703C86.1615 152.661 85.8932 152.641 85.6328 152.641C85.1016 152.641 84.6276 152.714 84.2109 152.859C83.7995 153 83.4505 153.195 83.1641 153.445C82.8828 153.695 82.6667 153.99 82.5156 154.328C82.3646 154.667 82.2891 155.034 82.2891 155.43Z" fill="#989898"/>
<path fill-rule="evenodd" clip-rule="evenodd" d="M0 10.7135C0 4.83537 4.85714 0 10.7143 0H89.2857C95.1429 0 100 4.84251 100 10.7135V31.0906C100 60.6314 82.0714 88.2723 54.2071 99.1429C52.8549 99.6947 51.4104 99.9855 49.95 100C48.5234 99.9722 47.1141 99.6817 45.7929 99.1429C17.9286 88.2723 0 60.6314 0 31.0906V10.7135ZM75.4286 32.1977C75.9292 31.6781 76.3197 31.0628 76.5766 30.3887C76.8335 29.7145 76.9516 28.9954 76.9238 28.2745C76.896 27.5536 76.7228 26.8457 76.4147 26.1933C76.1065 25.541 75.6698 24.9576 75.1306 24.4781C74.5915 23.9987 73.961 23.6331 73.2771 23.4033C72.5932 23.1735 71.8699 23.0842 71.1506 23.1408C70.4313 23.1974 69.7308 23.3986 69.0913 23.7325C68.4517 24.0664 67.8861 24.5261 67.4286 25.0839L42.1286 53.539L31.7857 45.7824C31.2229 45.3604 30.5825 45.0533 29.901 44.8787C29.2195 44.7041 28.5103 44.6654 27.8138 44.7649C27.1174 44.8644 26.4474 45.1001 25.842 45.4585C25.2366 45.8169 24.7078 46.291 24.2857 46.8538C23.8636 47.4166 23.5565 48.057 23.3819 48.7384C23.2073 49.4199 23.1686 50.129 23.2681 50.8254C23.3676 51.5218 23.6033 52.1918 23.9617 52.7971C24.3202 53.4024 24.7943 53.9312 25.3571 54.3533L39.6429 65.0668C40.7178 65.8716 42.0559 66.2434 43.392 66.1085C44.7281 65.9735 45.9648 65.3418 46.8571 64.3383L75.4286 32.1977Z" fill="#66FCF1"/>
</svg>
