<svg width="30" height="30" viewBox="0 0 30 30" fill="none" xmlns="http://www.w3.org/2000/svg">
<path fill-rule="evenodd" clip-rule="evenodd" d="M11.8176 5.81791e-06C9.68043 0.000338439 7.58334 0.580022 5.74955 1.67736C3.91576 2.7747 2.41384 4.34863 1.40368 6.23163C0.393519 8.11464 -0.0871071 10.2363 0.0129677 12.3707C0.113043 14.5051 0.790076 16.5725 1.97199 18.3527L0.392499 22.5782C0.352768 22.6847 0.341965 22.7998 0.361192 22.9118C0.380419 23.0237 0.42899 23.1286 0.501955 23.2157C0.574919 23.3028 0.669674 23.3691 0.776563 23.4076C0.883453 23.4462 0.998661 23.4558 1.11045 23.4353L6.64617 22.439C7.19481 22.7068 7.76275 22.9318 8.34354 23.1118C7.87588 21.0762 7.93347 18.9551 8.51089 16.9479C9.08832 14.9406 10.1666 13.1131 11.6445 11.6369C13.1224 10.1608 14.9514 9.08454 16.9596 8.50925C18.9677 7.93397 21.0893 7.87854 23.1248 8.34819C22.3826 5.92953 20.8834 3.81299 18.8478 2.31013C16.8123 0.807271 14.3479 -0.00250428 11.8176 5.81791e-06ZM27.1774 13.5379C26.217 12.5768 25.0641 11.8294 23.7946 11.3448C22.525 10.8602 21.1674 10.6493 19.8106 10.726C18.4539 10.8027 17.1286 11.1652 15.9218 11.7897C14.7149 12.4143 13.6537 13.2868 12.8077 14.3501C11.4442 16.0616 10.7034 18.186 10.7072 20.3741C10.7109 22.5622 11.4589 24.684 12.8283 26.3909C14.1977 28.0978 16.107 29.2882 18.2426 29.7667C20.3782 30.2451 22.613 29.9831 24.5799 29.0237L28.8919 29.7993C29.0036 29.8193 29.1185 29.8094 29.2251 29.7706C29.3316 29.7319 29.426 29.6656 29.4987 29.5786C29.5714 29.4915 29.6198 29.3868 29.6389 29.2751C29.6581 29.1633 29.6473 29.0485 29.6077 28.9422L28.3904 25.6874C29.6216 23.8334 30.1734 21.6107 29.9523 19.3962C29.7312 17.1818 28.7508 15.112 27.1774 13.5379Z" fill="white" fill-opacity="0.76"/>
</svg>
