<svg width="34" height="34" viewBox="0 0 34 34" fill="none" xmlns="http://www.w3.org/2000/svg">
<path fill-rule="evenodd" clip-rule="evenodd" d="M9.00908 0C12.2644 0 14.9034 2.63898 14.9034 5.89434C14.9034 9.14969 12.2644 11.7887 9.00908 11.7887C5.75372 11.7887 3.11475 9.14969 3.11475 5.89434C3.11475 2.63898 5.75372 0 9.00908 0ZM18.1826 18.3608C15.3677 19.4174 13.2275 21.8983 12.6848 24.9757H1.21428C0.54365 24.9757 0 24.4319 0 23.7614V22.8254C0 17.5022 4.31524 13.187 9.63835 13.187C13.3504 13.187 16.5723 15.2855 18.1826 18.3608ZM19.3298 13.187C22.8167 13.187 25.8712 15.0386 27.5634 17.8123C27.4894 17.8104 27.4148 17.8095 27.3402 17.8095H21.2812C20.5271 16.0614 19.3909 14.5168 17.9777 13.2811C18.4195 13.2191 18.8709 13.187 19.3298 13.187ZM17.9392 5.89434C17.9392 3.89744 17.2837 2.05364 16.1763 0.566321C16.9414 0.203176 17.7972 0 18.7005 0C21.9558 0 24.5948 2.63898 24.5948 5.89434C24.5948 9.14969 21.9558 11.7887 18.7005 11.7887C17.7972 11.7887 16.9414 11.5855 16.1763 11.2224C17.2837 9.73505 17.9392 7.89123 17.9392 5.89434ZM15.6225 25.866C15.94 23.0078 18.3554 20.8452 21.2308 20.8452H27.9476C30.823 20.8452 33.2385 23.0078 33.5559 25.866L33.5569 25.8752L33.9797 30.2874C34.1968 32.2682 32.6462 34 30.6528 34C29.2122 34 27.9331 33.0779 27.4777 31.7108L27.2628 31.0663C27.0947 30.5621 26.6231 30.2221 26.0922 30.2221H23.0863C22.5553 30.2221 22.0837 30.5621 21.9157 31.0663L21.7009 31.7108C21.2453 33.0779 19.9664 34 18.5257 34C16.5324 34 14.9816 32.2682 15.1988 30.2874L15.6216 25.8752L15.6225 25.866Z" fill="#C4C4C4"/>
</svg>
