<svg width="37" height="20" viewBox="0 0 37 20" fill="none" xmlns="http://www.w3.org/2000/svg">
<path d="M33.3333 0H3.33333C1.5 0 0 1.5 0 3.33333V16.6667C0 18.5 1.5 20 3.33333 20H33.3333C35.1667 20 36.6667 18.5 36.6667 16.6667V3.33333C36.6667 1.5 35.1667 0 33.3333 0ZM16.6667 11.6667H11.6667V16.6667H8.33333V11.6667H3.33333V8.33333H8.33333V3.33333H11.6667V8.33333H16.6667V11.6667ZM24.1667 15C22.7833 15 21.6667 13.8833 21.6667 12.5C21.6667 11.1167 22.7833 10 24.1667 10C25.55 10 26.6667 11.1167 26.6667 12.5C26.6667 13.8833 25.55 15 24.1667 15ZM30.8333 10C29.45 10 28.3333 8.88333 28.3333 7.5C28.3333 6.11667 29.45 5 30.8333 5C32.2167 5 33.3333 6.11667 33.3333 7.5C33.3333 8.88333 32.2167 10 30.8333 10Z" fill="white" fill-opacity="0.75"/>
</svg>
