<svg width="37" height="37" viewBox="0 0 37 37" fill="none" xmlns="http://www.w3.org/2000/svg">
<path fill-rule="evenodd" clip-rule="evenodd" d="M36.9983 33.0357C36.9983 34.0871 36.5806 35.0954 35.8372 35.8389C35.0937 36.5823 34.0854 37 33.034 37L14.534 37C13.4826 37 12.4743 36.5823 11.7308 35.8389C10.9874 35.0954 10.5697 34.0871 10.5697 33.0357L10.5697 27.9112C11.6421 27.0523 12.3378 25.8096 12.5096 24.4464L21.8019 24.4464C23.379 24.4464 24.8914 23.8199 26.0066 22.7048C27.1218 21.5896 27.7483 20.0771 27.7483 18.5C27.7483 16.9229 27.1218 15.4104 26.0066 14.2952C24.8914 13.1801 23.379 12.5536 21.8019 12.5536L12.5096 12.5536C12.3378 11.1904 11.6421 9.94771 10.5697 9.08879L10.5697 3.96429C10.5697 3.44369 10.6723 2.92819 10.8715 2.44722C11.0707 1.96625 11.3627 1.52923 11.7308 1.16112C12.0989 0.792998 12.536 0.50099 13.0169 0.301764C13.4979 0.102541 14.0134 2.0094e-06 14.534 1.96389e-06L33.034 3.46569e-07C33.5546 3.01057e-07 34.0701 0.102539 34.5511 0.301762C35.032 0.500988 35.4691 0.792996 35.8372 1.16111C36.2053 1.52923 36.4973 1.96625 36.6965 2.44722C36.8957 2.92819 36.9983 3.44369 36.9983 3.96429L36.9983 33.0357ZM8.02465 25.6172C8.38688 25.4672 8.69648 25.2131 8.91429 24.8871C9.1321 24.5611 9.24834 24.1778 9.24829 23.7857L9.24829 21.1429L21.8019 21.1429C22.5028 21.1429 23.175 20.8644 23.6706 20.3688C24.1663 19.8732 24.4447 19.2009 24.4447 18.5C24.4447 17.7991 24.1663 17.1269 23.6706 16.6312C23.175 16.1356 22.5028 15.8571 21.8019 15.8571L9.24829 15.8571L9.24829 13.2143C9.24795 12.8225 9.13151 12.4396 8.91368 12.114C8.69586 11.7883 8.38642 11.5346 8.02444 11.3847C7.66247 11.2348 7.2642 11.1955 6.87993 11.2719C6.49566 11.3482 6.14263 11.5367 5.86543 11.8136L0.579718 17.0993C0.208529 17.4709 3.2669e-05 17.9747 3.2715e-05 18.5C3.27609e-05 19.0253 0.208529 19.5291 0.579718 19.9007L5.86543 25.1864C6.14244 25.4636 6.49541 25.6525 6.87973 25.7292C7.26405 25.8059 7.66247 25.7669 8.02465 25.6172Z" fill="#C4C4C4"/>
</svg>
